PathFileType	4	(X/Y/Z)	/Users/niels/Desktop/University/Third Semester/Perception and Action/Exam/Gymnastics Motion Tracking/Code for Gym Tracking/Analyzed Data/Webcam_Backflip/id2002_2_baseline_Sports2D/id2002_2_baseline_Sports2D_px_person00.trc
DataRate	CameraRate	NumFrames	NumMarkers	Units	OrigDataRate	OrigDataStartFrame	OrigNumFrames
29.798657718120804	29.798657718120804	16	22	m	29.798657718120804	37	149
Frame#	Time	Hip			RHip			RKnee			RAnkle			RBigToe			RSmallToe			RHeel			LHip			LKnee			LAnkle			LBigToe			LSmallToe			LHeel			Neck			Head			Nose			RShoulder			RElbow			RWrist			LShoulder			LElbow			LWrist		
		X1	Y1	Z1	X2	Y2	Z2	X3	Y3	Z3	X4	Y4	Z4	X5	Y5	Z5	X6	Y6	Z6	X7	Y7	Z7	X8	Y8	Z8	X9	Y9	Z9	X10	Y10	Z10	X11	Y11	Z11	X12	Y12	Z12	X13	Y13	Z13	X14	Y14	Z14	X15	Y15	Z15	X16	Y16	Z16	X17	Y17	Z17	X18	Y18	Z18	X19	Y19	Z19	X20	Y20	Z20	X21	Y21	Z21	X22	Y22	Z22
37	1.241666666666667	1.0735671199814336	-0.7085568164361427	0.0	1.1125644645051498	-0.7198099268481529	0.0	1.1464079490851644	-1.047768980611789	0.0	1.0888128755254816	-1.0748920479730033	0.0			0.0			0.0			0.0	1.035682050542601	-0.7140523536122894	0.0	1.0894155656970135	-1.0377572531432278	0.0	1.073781305203228	-1.0644845660775177	0.0			0.0			0.0			0.0	1.148771820881768	-0.2399670886463623	0.0	1.3114361050650423	-0.09907916109174951	0.0	1.2642676115279652	-0.23647223992393396	0.0	1.1639971388994428	-0.2649959906490214	0.0	1.2046147388398303	-0.5137563575057434	0.0	1.3683185199684482	-0.7260486672847295	0.0	1.056197769642528	-0.25234618239492645	0.0	1.0927177894448175	-0.457194456601575	0.0	1.223741152010959	-0.3900529473682295	0.0
38	1.2752252252252254	1.0774288007941193	-0.7076909786332567	0.0	1.1079190399279009	-0.7200320298179002	0.0	1.1436233469945887	-1.0483538591436374	0.0	1.0889317243009955	-1.0748995856856536	0.0			0.0			0.0			0.0	1.050855058346173	-0.7146069744750081	0.0	1.096721505743209	-1.036510635248893	0.0	1.0728913846828745	-1.0660370070195602	0.0			0.0			0.0			0.0	1.1493128453660104	-0.2431666276161813	0.0	1.3106782507462054	-0.09989679054468806	0.0	1.2663423272546694	-0.2373290114171334	0.0	1.1507928948757744	-0.2681177796117911	0.0	1.189223161388558	-0.5120987865616305	0.0	1.3602291375874258	-0.7195906801529023	0.0	1.0701778594083389	-0.2545373936205727	0.0	1.1159552687878698	-0.45950490951462447	0.0	1.2353492538776751	-0.3880306274577128	0.0
39	1.308783783783784	1.0804231727342335	-0.7067200807047742	0.0	1.1030403157601223	-0.7198148006456118	0.0	1.1418295231376439	-1.0488303382309607	0.0	1.0891622886398162	-1.074913424777544	0.0			0.0			0.0			0.0	1.0651775318129357	-0.7148493669044849	0.0	1.101307987136351	-1.0359756267879716	0.0	1.0716589359183943	-1.0673498178712686	0.0			0.0			0.0			0.0	1.148765411172125	-0.2462971470805945	0.0	1.3088056539353754	-0.09986256876004823	0.0	1.2670779657116606	-0.2374107293259133	0.0	1.1379837462841376	-0.27083015674434624	0.0	1.1717371386244197	-0.5110990984246346	0.0	1.3482980898255863	-0.7144382993361934	0.0	1.0812717098042375	-0.2586793816358194	0.0	1.1341704192434008	-0.46648018273465525	0.0	1.2424826186370832	-0.3899863089378312	0.0
40	1.3423423423423424	1.0821246903981885	-0.7057731092174075	0.0	1.0979110107606866	-0.7191262235904139	0.0	1.1408758465782514	-1.0490810484848916	0.0	1.089512776062846	-1.0749334830805921	0.0			0.0			0.0			0.0	1.076951250858867	-0.7148038192635702	0.0	1.102369091837785	-1.0361391395840092	0.0	1.0707614845685476	-1.0688054368778062	0.0			0.0			0.0			0.0	1.1472663682482658	-0.24917046547045116	0.0	1.3060464235753775	-0.09931786525674323	0.0	1.2666303421162552	-0.23692856270003626	0.0	1.1259336240303273	-0.2730270615978399	0.0	1.1527642896681018	-0.5106153351015201	0.0	1.332389967240929	-0.710674964631784	0.0	1.089445117760543	-0.2646613170114054	0.0	1.1479252241472344	-0.4763550004518914	0.0	1.2473718171079908	-0.3926124681874265	0.0
41	1.3759009009009011	1.082422357282474	-0.7051398301330639	0.0	1.0924978838237434	-0.7182082597884111	0.0	1.1401908553519486	-1.0491591058565095	0.0	1.0899246832668683	-1.0749554964580827	0.0			0.0			0.0			0.0	1.085541779065245	-0.7147518911132161	0.0	1.1005843988173645	-1.036937501256053	0.0	1.071206567145567	-1.0707193309244523	0.0			0.0			0.0			0.0	1.145202478156254	-0.25165869307333993	0.0	1.3027581090270268	-0.09876635719835944	0.0	1.2652971872503749	-0.23611160014390528	0.0	1.1146958354428376	-0.274721493130317	0.0	1.1329790906340258	-0.5103820294638252	0.0	1.312565974269969	-0.7083699239001439	0.0	1.095734604026325	-0.2719855985090189	0.0	1.1580010793025364	-0.48689184778772443	0.0	1.2513149510385229	-0.3944200562902228	0.0
42	1.4094594594594596	1.08150196980275	-0.7051584235654457	0.0	1.0866906630762294	-0.7174618577280352	0.0	1.1390791224222583	-1.0491125411761548	0.0	1.0902161416347096	-1.0749678572586274	0.0			0.0			0.0			0.0	1.0913143609356635	-0.7149801595168648	0.0	1.0974169933918012	-1.038041773576411	0.0	1.0735246013820492	-1.0729857569801697	0.0			0.0			0.0			0.0	1.1430284103243415	-0.25378916045202365	0.0	1.2992280019603135	-0.09859213137985187	0.0	1.2634763072976334	-0.23511926109588546	0.0	1.1042708667668009	-0.2761842568288606	0.0	1.1130660153566343	-0.5100999003942699	0.0	1.2890923313250404	-0.7076036230654343	0.0	1.1014605970910034	-0.28009026291179373	0.0	1.1653589534118518	-0.49618907662276585	0.0	1.2547744004279209	-0.39508974832602206	0.0
43	1.443018018018018	1.0797410388977815	-0.7059364851532065	0.0	1.0803742214941798	-0.7171235993163391	0.0	1.136873912163304	-1.0488619425322472	0.0	1.090025309107314	-1.0749487555315302	0.0			0.0			0.0			0.0	1.0951578112469846	-0.715513825582848	0.0	1.0943813221049086	-1.03887443520992	0.0	1.077309705394386	-1.0751626274855057	0.0			0.0			0.0			0.0	1.1411598042788267	-0.255746875282398	0.0	1.2956207230885715	-0.09895060671590691	0.0	1.2616406946939087	-0.23405784235630597	0.0	1.0948051031183665	-0.27782763360899804	0.0	1.093713254259954	-0.5095892423901437	0.0	1.2624060875265244	-0.7083617616446922	0.0	1.1077268714747681	-0.2885896768349797	0.0	1.1711134908665282	-0.5032998188524944	0.0	1.2577567495889985	-0.39482980837210185	0.0
44	1.4765765765765768	1.077772627689529	-0.7072040803830355	0.0	1.0736428843286636	-0.7170503547383602	0.0	1.1330595774867078	-1.048207960309692	0.0	1.088790875354502	-1.0748659222713408	0.0			0.0			0.0			0.0	1.0984188773833332	-0.7161394459840702	0.0	1.0930424114936745	-1.0389309609290225	0.0	1.0818967518858507	-1.0767387163438926	0.0			0.0			0.0			0.0	1.1399356709727329	-0.2577001464982364	0.0	1.2920782930422507	-0.09987438289120452	0.0	1.2601844965189954	-0.23310720396249351	0.0	1.0864254063131797	-0.2797977157457907	0.0	1.0755341440138257	-0.5088385153337281	0.0	1.2330670668364174	-0.7104818982541161	0.0	1.1152605315422066	-0.29722466827488175	0.0	1.1764998457585618	-0.5084255138710964	0.0	1.2601388864540073	-0.39404811566978054	0.0
45	1.5101351351351353	1.0764925358038306	-0.7084137680050753	0.0	1.066933061425865	-0.7168032305919911	0.0	1.127484532162577	-1.0470049224833002	0.0	1.0858352153246644	-1.0746828438273386	0.0			0.0			0.0			0.0	1.1025724846824199	-0.7165635635128357	0.0	1.094566002842115	-1.0380988707644743	0.0	1.0872232852418404	-1.0773744897892898	0.0			0.0			0.0			0.0	1.1395001907596678	-0.25973063052959316	0.0	1.2887018662201113	-0.10132794440901186	0.0	1.2592303120547055	-0.23251683744477702	0.0	1.0789986802632396	-0.2819243496666213	0.0	1.0589394456740222	-0.5079960656590481	0.0	1.2018045852545676	-0.7137738075751162	0.0	1.1241540548717504	-0.30574779530632135	0.0	1.182434699836804	-0.5125188122907144	0.0	1.2618419889193788	-0.39318459370898157	0.0
46	1.5436936936936938	1.0767722089774698	-0.7089228387353292	0.0	1.0609401732050425	-0.7158800081285824	0.0	1.1203433453293148	-1.0452928097545364	0.0	1.0806418535660964	-1.0743765905755984	0.0			0.0			0.0			0.0	1.1084018657726158	-0.7164805063469099	0.0	1.0988100174932716	-1.0366368060628586	0.0	1.0933603957899822	-1.0771054321745126	0.0			0.0			0.0			0.0	1.1396965716682377	-0.2618923894658101	0.0	1.285507825608879	-0.10324271673371754	0.0	1.258632749268221	-0.2324979369407776	0.0	1.0722152645327747	-0.2840402209460844	0.0	1.0440475138794973	-0.5072636114613663	0.0	1.1695455710625342	-0.7180183474812984	0.0	1.133704274745773	-0.31388292267924234	0.0	1.1889499129649972	-0.5166031894567247	0.0	1.2629056852735823	-0.39259978398551326	0.0
47	1.5772522522522525	1.079074917823877	-0.7081516455860096	0.0	1.0563524329607408	-0.7138706883502415	0.0	1.1118096763139862	-1.0431475486199506	0.0	1.0732882718214	-1.0739679857754445	0.0			0.0			0.0			0.0	1.115590176709223	-0.7155647285964092	0.0	1.1044006358451661	-1.0347629296891043	0.0	1.099730309053418	-1.0762506418128255	0.0			0.0			0.0			0.0	1.1401895683506331	-0.2641988356804809	0.0	1.2825141892133738	-0.10555093771885281	0.0	1.2581890982731536	-0.23315142521351773	0.0	1.0658298550894978	-0.28610304786750673	0.0	1.030680594984589	-0.5066752177647009	0.0	1.1372389686835913	-0.7227554801742472	0.0	1.1428978968373376	-0.3213679747084154	0.0	1.1954252213323218	-0.5212619366763223	0.0	1.263471522575135	-0.3925202974589953	0.0
48	1.610810810810811	1.0831842345427485	-0.7058492761588061	0.0	1.0535481139276563	-0.7106072994646085	0.0	1.1019147089859394	-1.0405046648257714	0.0	1.0646939810190041	-1.0735411168185738	0.0			0.0			0.0			0.0	1.123021377279408	-0.7136350799341251	0.0	1.109674302409453	-1.0323508719269436	0.0	1.1052825490253688	-1.07508621502413	0.0			0.0			0.0			0.0	1.1406962921639827	-0.2665664499982148	0.0	1.2797474770317203	-0.10813357104707286	0.0	1.2577792869691469	-0.23440084458225016	0.0	1.0597696087987272	-0.28807786781129646	0.0	1.0184476048125257	-0.5060423424952261	0.0	1.1056399504618306	-0.7272020935366278	0.0	1.1510870347505657	-0.32805011959553876	0.0	1.2012939897285146	-0.5265117438263134	0.0	1.26369119026473	-0.392997214125412	0.0
49	1.6443693693693695	1.0880799301753141	-0.702402034749669	0.0	1.0523738275628471	-0.7063796881303185	0.0	1.0912014956076217	-1.037333813650585	0.0	1.0564073772124791	-1.0732026429050607	0.0			0.0			0.0			0.0	1.1292905780709606	-0.7109626742170423	0.0	1.1130470721075312	-1.0292238472900808	0.0	1.1086346246852365	-1.0737963821882544	0.0			0.0			0.0			0.0	1.1410813973114533	-0.26884168330953606	0.0	1.277141591331026	-0.11080138510816956	0.0	1.2573381145906426	-0.23596879861437306	0.0	1.0541386002069797	-0.28985653618506274	0.0	1.0069030435828845	-0.5051883705546217	0.0	1.0752958085652926	-0.7304670493880474	0.0	1.1581006936485947	-0.3338777637243468	0.0	1.2063152530893448	-0.5320074855103017	0.0	1.2636715590110361	-0.3938235211257878	0.0
50	1.6779279279279282	1.0921679568528138	-0.6987022232063703	0.0	1.0520057368148164	-0.7018701572706227	0.0	1.081134534384788	-1.0339591581878604	0.0	1.0499644140613495	-1.0729945394240086	0.0			0.0			0.0			0.0	1.1332132290087191	-0.7082280204555965	0.0	1.1132026853493877	-1.0257019094493767	0.0	1.1084735558317003	-1.0726071816494684	0.0			0.0			0.0			0.0	1.1412750461908225	-0.2709119714119053	0.0	1.2745165573016695	-0.11333930315827846	0.0	1.256754251588111	-0.23746267799698167	0.0	1.0491489265480272	-0.29123972800212133	0.0	0.9956980862862008	-0.5041009328357128	0.0	1.0466335762287002	-0.7319385680923948	0.0	1.1640044541613976	-0.3388212302154987	0.0	1.2104474440718096	-0.5373404363211028	0.0	1.2634760852523637	-0.39452559724964376	0.0
51	1.7114864864864867	1.0940329745684854	-0.6955022179881419	0.0	1.0511748392781146	-0.6976913215083572	0.0	1.0731474293604928	-1.0309868150967947	0.0	1.0460541001542087	-1.0728744845861484	0.0			0.0			0.0			0.0	1.134317806681239	-0.7060115130065431	0.0	1.1099990499332062	-1.0226095648182978	0.0	1.1048377942706555	-1.071694310014745	0.0			0.0			0.0			0.0	1.1411637264227432	-0.27278583656768557	0.0	1.2716593429418537	-0.1155372467974174	0.0	1.2557675234658383	-0.23852683328915208	0.0	1.0449302025359146	-0.291992882358775	0.0	0.9846397874124643	-0.5027839095323479	0.0	1.0199740918896132	-0.7315179607695075	0.0	1.1689742983659506	-0.34287257987761627	0.0	1.2137289593316753	-0.5421943567292183	0.0	1.2631018970189682	-0.39458517053222053	0.0
52	1.7450450450450452	1.0932081534747728	-0.6930003347455868	0.0	1.048903967409976	-0.6940971093820643	0.0	1.0675618443754633	-1.0288681292797743	0.0	1.0442079418240688	-1.0727897815517897	0.0			0.0			0.0			0.0	1.1330277478542203	-0.7044470660373877	0.0	1.1048158504482268	-1.0206515811560233	0.0	1.0994229811983516	-1.0710605846652266	0.0			0.0			0.0			0.0	1.1406245102227826	-0.27456582802542695	0.0	1.2684515838723667	-0.11724059780935689	0.0	1.2540345910630257	-0.23899524406222805	0.0	1.041367059490028	-0.29203589091724924	0.0	0.973713746829085	-0.5011221864737292	0.0	0.9955156152741899	-0.7294632260570529	0.0	1.173226692399212	-0.34610357794392743	0.0	1.2162512997481731	-0.5463412068874665	0.0	1.262451420752898	-0.3938043435872046	0.0
